<?xml version="1.0" standalone="no"?>
<!DOCTYPE svg PUBLIC "-//W3C//DTD SVG 20010904//EN"
 "http://www.w3.org/TR/2001/REC-SVG-20010904/DTD/svg10.dtd">
<svg version="1.0" xmlns="http://www.w3.org/2000/svg"
 width="639.000000pt" height="450.000000pt" viewBox="0 0 639.000000 450.000000"
 preserveAspectRatio="xMidYMid meet">

<g transform="translate(0.000000,450.000000) scale(0.100000,-0.100000)"
fill="#000000" stroke="none">
<path d="M3815 3972 c-67 -23 -143 -77 -141 -99 0 -10 -3 -17 -9 -16 -11 1
-18 -43 -19 -124 -1 -63 -8 -59 -18 10 l-7 52 3 -56 c2 -37 10 -68 24 -90 l22
-34 0 35 c1 30 6 38 44 61 33 20 50 41 70 83 15 31 29 56 32 56 6 0 37 -30
104 -102 57 -63 55 -73 -6 -32 -21 15 -32 19 -24 10 34 -42 135 -62 179 -34
24 15 48 5 62 -26 17 -36 -5 -85 -41 -92 -17 -4 -30 -16 -37 -35 -13 -35 -10
-35 28 -8 74 52 106 174 75 281 -9 31 -16 61 -16 68 0 21 42 6 63 -22 18 -24
21 -46 24 -144 3 -138 14 -184 56 -236 42 -52 41 -94 -2 -187 -28 -62 -32 -77
-22 -97 16 -35 14 -40 -9 -19 -29 26 -25 68 11 119 43 60 42 102 -5 189 -43
82 -49 71 -6 -13 38 -76 38 -115 0 -171 -37 -55 -39 -97 -5 -129 14 -13 25
-21 25 -17 0 3 16 -4 35 -18 60 -40 100 -49 162 -36 29 7 67 24 83 38 31 26
60 72 60 94 0 7 -10 -7 -23 -31 -12 -24 -34 -50 -47 -58 l-25 -16 22 25 c35
39 56 99 56 162 0 34 4 52 9 45 15 -25 8 3 -13 48 -12 25 -51 76 -87 112 -73
76 -93 114 -117 227 -31 146 -83 214 -180 236 -42 9 -61 9 -106 -4 -48 -14
-60 -14 -109 -1 -71 18 -113 17 -175 -4z"/>
<path d="M4315 3950 c10 -11 20 -20 23 -20 3 0 -3 9 -13 20 -10 11 -20 20 -23
20 -3 0 3 -9 13 -20z"/>
<path d="M4211 3584 c0 -11 3 -14 6 -6 3 7 2 16 -1 19 -3 4 -6 -2 -5 -13z"/>
<path d="M4613 3290 c0 -25 2 -35 4 -22 2 12 2 32 0 45 -2 12 -4 2 -4 -23z"/>
<path d="M3692 3253 c-81 -80 -105 -143 -106 -278 0 -69 6 -131 22 -202 13
-56 24 -141 25 -188 1 -47 4 -85 7 -85 26 1 147 32 175 46 29 14 37 25 49 68
8 28 17 80 21 116 15 155 65 300 122 353 38 35 87 44 136 23 76 -31 100 -167
62 -349 -26 -125 -92 -293 -130 -331 -15 -15 -10 -16 57 -16 l74 0 29 173 c24
134 30 203 30 312 0 136 -1 142 -31 205 -35 73 -91 136 -161 179 l-48 30 -27
-77 c-27 -76 -70 -132 -102 -132 -8 0 -28 12 -46 26 -29 25 -32 25 -49 10 -59
-53 -94 37 -51 132 10 23 15 42 10 42 -5 0 -36 -26 -68 -57z"/>
<path d="M2810 2947 c0 -43 -5 -78 -12 -85 -9 -9 -68 -12 -205 -12 -106 0
-193 -3 -193 -7 0 -5 31 -105 69 -223 l68 -215 642 -3 641 -2 0 25 0 25 -246
2 -246 3 -91 283 -91 282 -168 0 -168 0 0 -73z"/>
<path d="M1782 2874 c2 -22 9 -30 26 -32 31 -5 27 24 -6 46 -23 15 -24 15 -20
-14z"/>
<path d="M1661 2819 c7 -14 14 -18 21 -11 13 13 2 32 -18 32 -12 0 -13 -4 -3
-21z"/>
<path d="M1960 2822 c-15 -5 -30 -21 -30 -34 0 -12 39 4 45 19 7 19 4 22 -15
15z"/>
<path d="M1855 2800 c-11 -5 -37 -6 -57 -3 -40 6 -52 -9 -20 -26 20 -10 82 -5
95 8 15 15 3 29 -18 21z"/>
<path d="M1695 2782 c-25 -13 -27 -17 -11 -20 10 -2 25 3 34 12 23 23 12 27
-23 8z"/>
<path d="M1900 2776 c0 -15 29 -36 49 -36 6 0 11 5 11 10 0 6 -6 10 -14 10 -8
0 -22 7 -30 16 -14 14 -16 14 -16 0z"/>
<path d="M1710 2734 l-25 -14 28 0 c17 0 27 5 27 15 0 8 -1 15 -2 14 -2 -1
-14 -7 -28 -15z"/>
<path d="M1749 2713 c-8 -10 -23 -23 -34 -29 -27 -15 -29 -31 -5 -39 29 -9 19
-31 -12 -27 -35 4 -45 -15 -14 -29 16 -8 23 -17 19 -28 -4 -13 -3 -14 5 -2 9
12 13 12 26 2 14 -12 16 -10 16 7 0 12 -4 23 -10 27 -5 3 -7 12 -3 21 5 13 8
12 26 -3 20 -18 20 -17 14 13 -7 38 1 50 19 26 12 -16 13 -15 14 5 0 12 -5 23
-12 25 -9 3 -9 6 0 12 7 4 12 3 12 -2 0 -6 10 -5 25 1 29 14 33 27 6 27 -10 0
-32 3 -48 6 -23 4 -34 1 -44 -13z m21 -44 c0 -5 -7 -9 -15 -9 -15 0 -20 12 -9
23 8 8 24 -1 24 -14z"/>
<path d="M1890 2717 c0 -11 8 -17 25 -17 14 0 25 5 25 11 0 6 -6 9 -14 6 -7
-3 -19 0 -25 6 -8 8 -11 7 -11 -6z"/>
<path d="M1860 2675 c0 -8 4 -15 9 -15 5 0 7 -10 3 -22 -5 -21 -4 -22 11 -9 9
7 17 10 17 6 0 -4 7 -2 16 6 14 11 13 15 -8 31 -28 22 -48 23 -48 3z"/>
<path d="M1889 2604 c-12 -15 -11 -16 9 -10 24 8 31 -8 7 -18 -8 -3 -15 -9
-15 -14 0 -6 21 -7 65 -2 6 0 1 8 -10 16 -14 11 -16 18 -7 21 6 3 10 9 6 14
-9 15 -40 10 -55 -7z"/>
<path d="M1629 2540 c13 -11 29 -20 37 -20 8 0 14 -4 14 -9 0 -17 -26 -30 -48
-24 -21 5 -52 -11 -52 -27 0 -4 14 -10 30 -12 17 -3 30 -1 30 4 0 5 9 4 20 -2
21 -11 29 3 10 15 -8 5 -7 11 1 21 10 13 14 12 30 -2 18 -16 19 -16 19 9 0 32
-46 67 -87 67 l-28 -1 24 -19z"/>
<path d="M1903 2533 c-7 -2 -13 -9 -13 -15 0 -6 6 -8 14 -5 8 3 22 -1 33 -8
24 -19 33 -18 33 0 0 12 -42 39 -53 34 -1 0 -8 -3 -14 -6z"/>
<path d="M1913 2493 c-7 -3 -13 -17 -13 -31 0 -24 1 -25 16 -10 18 18 16 47
-3 41z"/>
<path d="M1606 2420 c-37 -6 -47 -30 -13 -30 34 0 41 -11 15 -24 -13 -6 -24
-19 -26 -29 -3 -14 0 -16 21 -8 27 10 37 6 37 -16 0 -7 -8 -13 -18 -13 -11 0
-27 -10 -38 -21 l-19 -22 40 5 c22 3 52 1 68 -3 15 -4 27 -5 27 -3 0 16 -23
44 -35 44 -8 0 -15 9 -15 21 0 16 4 19 20 14 15 -5 18 -3 14 9 -3 8 -14 18
-25 21 -26 9 -25 35 1 28 15 -4 19 -2 14 10 -7 19 -30 25 -68 17z"/>
<path d="M3503 2251 c-43 -50 -120 -90 -279 -144 -136 -47 -211 -81 -254 -117
-24 -20 -24 -21 -6 -33 54 -34 106 -93 172 -193 40 -61 86 -122 104 -134 31
-22 37 -23 203 -17 211 7 329 30 443 87 136 67 224 182 241 315 3 22 10 45 15
51 8 11 37 169 38 207 0 16 -22 17 -322 16 l-323 -1 -32 -37z"/>
<path d="M1604 2206 c-3 -8 -4 -22 -2 -31 3 -14 5 -14 26 0 12 9 22 23 22 31
0 18 -39 18 -46 0z"/>
<path d="M5109 1730 c-26 -4 -56 -13 -67 -19 -27 -15 -39 -75 -23 -115 39 -97
38 -135 -6 -155 -22 -10 -24 -14 -12 -22 7 -5 24 -9 35 -9 26 0 34 -17 34 -75
0 -49 -10 -60 -63 -70 -44 -9 -35 -20 25 -30 38 -7 43 -16 21 -44 -7 -9 -18
-24 -25 -34 -7 -10 -31 -24 -53 -32 -38 -13 -40 -15 -37 -51 3 -29 -4 -47 -29
-82 -18 -25 -47 -78 -65 -119 -17 -41 -35 -77 -38 -80 -15 -15 -2 193 18 292
6 29 6 29 -10 -5 -11 -24 -19 -77 -23 -165 l-6 -130 -14 89 c-24 156 -11 205
93 361 61 92 102 190 108 259 4 58 -18 57 -25 -1 -9 -75 -43 -155 -109 -255
-78 -117 -92 -170 -84 -303 3 -55 9 -112 12 -127 5 -24 3 -28 -15 -28 -27 0
-29 14 -34 180 -3 118 -7 143 -30 201 -22 52 -25 71 -17 95 5 16 12 46 15 66
3 21 11 37 18 35 19 -3 20 40 1 88 -9 25 -20 45 -24 45 -3 0 -17 -11 -30 -25
-31 -33 -42 -32 -24 3 21 41 18 85 -9 110 -29 27 -39 27 -62 2 -25 -27 -36
-25 -25 5 13 35 1 84 -26 101 -12 9 -56 18 -96 21 l-74 6 -17 -40 c-13 -27
-17 -58 -15 -103 3 -62 4 -66 36 -81 42 -21 27 -34 -51 -44 -68 -8 -77 -21
-77 -113 0 -76 16 -106 58 -110 39 -4 40 -14 6 -41 l-27 -21 17 -44 c24 -62
38 -72 83 -58 21 6 39 9 42 7 7 -8 -30 -44 -51 -51 -16 -5 -17 -8 -7 -21 42
-50 135 -55 227 -11 l53 26 29 -40 c31 -43 70 -136 70 -168 0 -17 -9 -19 -71
-22 -56 -2 -74 -7 -83 -21 -9 -14 -7 -21 11 -35 18 -14 24 -37 38 -137 9 -66
18 -130 21 -142 4 -23 7 -23 144 -23 137 0 140 0 144 23 3 12 12 78 20 146 11
90 20 127 32 135 9 7 15 21 12 32 -3 16 -13 19 -80 22 l-77 3 19 50 c26 64 64
137 89 168 l19 24 40 -31 c47 -38 118 -71 149 -72 13 0 41 7 63 16 l40 16 -30
34 c-41 47 -38 58 9 34 l39 -19 26 20 c15 12 33 34 41 50 14 26 14 30 -5 49
-29 29 -25 38 17 42 32 3 41 8 55 38 20 42 32 121 23 149 -7 24 -86 51 -148
51 -38 0 -38 1 -32 30 6 26 3 31 -18 39 -40 15 -40 29 -2 45 34 15 35 16 35
73 0 105 -26 155 -77 152 -10 -1 -39 -5 -64 -9z m81 -410 c0 -11 -4 -20 -10
-20 -5 0 -14 9 -20 20 -9 17 -8 20 10 20 13 0 20 -7 20 -20z m-489 -258 c5
-31 9 -88 9 -127 l0 -70 -21 45 c-11 24 -31 59 -44 76 -24 31 -24 33 -8 65 11
20 17 58 18 93 l0 59 18 -42 c10 -23 22 -68 28 -99z"/>
<path d="M1420 1219 c-57 -23 -120 -90 -120 -129 0 -6 68 -10 205 -10 l205 0
-11 28 c-14 37 -56 80 -101 103 -41 21 -135 25 -178 8z"/>
<path d="M1300 988 c0 -13 11 -142 25 -288 14 -146 25 -268 25 -272 0 -5 67
-8 149 -8 l150 0 6 53 c9 79 45 489 45 515 l0 22 -200 0 -200 0 0 -22z"/>
<path d="M2410 907 c-128 -50 -220 -53 -235 -7 -5 15 -13 17 -48 13 -109 -12
-113 -27 -24 -83 68 -44 90 -47 144 -25 36 15 85 20 95 9 3 -3 -5 -26 -19 -50
-19 -34 -23 -48 -14 -57 17 -17 145 124 165 182 9 25 15 45 13 46 -1 1 -36
-12 -77 -28z"/>
<path d="M3055 639 c-80 -109 -147 -153 -181 -119 -14 14 -106 -58 -102 -79 3
-13 19 -17 81 -19 l78 -3 58 61 c32 33 63 60 69 60 7 0 12 -15 12 -32 0 -48
10 -78 26 -78 8 0 14 3 14 6 0 4 7 51 16 105 12 75 13 107 4 138 -6 23 -12 41
-13 41 -1 0 -29 -37 -62 -81z"/>
</g>
</svg>
