<?xml version="1.0" standalone="yes"?>
<svg xmlns="http://www.w3.org/2000/svg" width="561" height="503">
<path style="fill:#0d1014; stroke:none;" d="M0 0L0 340L1 340C3.58137 335.533 7.97666 331.915 9.65586 327C13.1815 316.68 9.07282 305.18 13.9198 295.001C18.0098 286.411 26.7153 283.903 33.9846 290.214C36.2129 292.148 38.1509 294.418 39.5864 297C42.0277 301.391 43.0248 306.416 45 311L46 311C53.7264 297.712 51.3554 270.094 69 264.654C92.3129 257.465 88.4653 298.726 93.919 309.996C98.0176 318.466 107.454 321.999 105.674 333C104.047 343.052 91.359 351.193 92.2569 361C93.4994 374.569 107.968 382.843 104.471 398C101.811 409.53 90.5037 416.983 80 420.655C76.267 421.96 69.7146 422.372 66.7423 424.988C61.4353 429.66 65.5179 440.617 60 446C60.243 440.34 64.0542 430.656 61.3966 425.434C59.0275 420.78 46.1906 425.648 44.6929 429.418C42.9162 433.891 45.2086 440.924 44 446L43 446C41.9517 441.597 43.7607 432.073 40.2577 428.988C37.6484 426.691 32.2526 426.672 29 425.653C20.363 422.946 11.6125 418.427 7.37809 409.999C-0.0339265 395.247 14.2041 386.676 13.7978 373C13.5719 365.394 4.02069 358.999 1 352L0 352L0 503L561 503L561 235L525 235C524.296 226.156 522.431 213.196 514.957 207.434C510.943 204.339 505.769 205 501 205C490.508 205 464.691 201.322 458.752 213.044C456.454 217.578 466.336 227.256 465.91 234C464.96 249.009 459.03 264.048 459.029 279C459.029 291.169 463.58 302.306 466 314C443.071 317.088 439.827 335.271 434.895 355C431.782 367.453 433.284 379.998 418 380L435.4 461L444 502L435 501L427.627 470L413.37 413L406 381C400.016 381 393.978 380.765 388 381.039C364.668 382.109 374.327 413.633 377.626 427C378.689 431.307 380.926 436.856 379 441L383 457C391.206 456.275 396.185 473.364 398 480L341 495L352 483L352 482L350 479L355 478L355 474L359 474L358 470L364 463L352 440L351 440L338 472C341.267 478.774 335.051 489.854 334 497L279 474L279 473L296 471L295 467L300 469L307 469L306 466L307 465L320 464L326 437L323 436C325.723 422.843 335.248 407.391 334.722 394C334.276 382.648 321.404 363.795 328.603 353.043C332.07 347.867 339.439 345.517 345 343.425C360.049 337.763 376.271 335.05 392 332L391 326L430 325L430 313L401 313L402 308C383.339 309.473 364.75 310 346 310C341.984 310 330.152 312.02 328.632 306.852C327.115 301.693 334.357 298.254 338.001 296.812C350.822 291.738 364.178 293.079 375.772 284.648C382.263 279.929 382.442 269.547 374 268L382 235L202 235L202 0L0 0z"/>
<path style="fill:#2d7aed; stroke:none;" d="M202 0L202 15L560 15L560 0L202 0z"/>
<path style="fill:#68a0f3; stroke:none;" d="M560 0L560 15L202 15L202 16L561 16L560 0z"/>
<path style="fill:#f4f0ef; stroke:none;" d="M212.603 6.15662C210.87 7.31442 212.664 10.0015 214.397 8.84338C216.13 7.68558 214.336 4.99854 212.603 6.15662M222.603 6.15662C220.87 7.31442 222.664 10.0015 224.397 8.84338C226.13 7.68558 224.336 4.99854 222.603 6.15662M233.603 6.15662C231.87 7.31442 233.664 10.0015 235.397 8.84338C237.13 7.68555 235.336 4.99854 233.603 6.15662M202 16L202 235L383 235C385.504 224.18 391.622 218.534 402 215C403.444 222.664 404.561 247.23 415.997 246.392C429.342 245.414 431.315 219.885 439.637 212.604C444.351 208.481 450.031 214.219 455 213.764C458.721 213.423 461.708 209.491 465 207.919C470.708 205.193 477.756 204.517 484 204.09C496.459 203.236 513.185 201.486 520.095 214C522.89 219.062 522.325 230.469 526.738 233.972C528.993 235.761 533.327 235 536 235L561 235L561 16L202 16z"/>
<path style="fill:#68a0f3; stroke:none;" d="M243 91L244 91L244 50L418 50L418 91L419 60L417.397 50.0278L407 49L379 49L280 49L255 49L244.603 50.0278L243 61L243 91z"/>
<path style="fill:#2d7aed; stroke:none;" d="M244 50L244 91L418 91L418 50L244 50z"/>
<path style="fill:#68a0f3; stroke:none;" d="M410 131L411 132L410 131M402 132L403 133L402 132z"/>
<path style="fill:#2d7aed; stroke:none;" d="M403 132L404 133L403 132z"/>
<path style="fill:#0d1014; stroke:none;" d="M371 194C380.734 198.99 390.142 202.726 401 204.611C404.775 205.267 411.035 206.501 412 202C391.008 205.026 390.991 182.416 388 167L393 166L393 165L388 166L388 158C402.523 166.045 420.37 170.511 437 171C438.87 181.228 432.629 181.485 428.318 189.104C425.977 193.241 427.185 198.608 428 203C441.244 202.725 452.039 195.623 463 189L463 187C446.482 175.025 449.009 154.928 435.815 141.093C422.77 127.415 390.96 128.199 382.88 147C378.586 156.992 381.474 167.71 379.532 178C378.332 184.365 374.531 188.814 371 194z"/>
<path style="fill:#2d7aed; stroke:none;" d="M417 132L418 133L417 132z"/>
<path style="fill:#68a0f3; stroke:none;" d="M418.667 132.333L419.333 132.667L418.667 132.333M398 133L399 134L398 133z"/>
<path style="fill:#2d7aed; stroke:none;" d="M399 133L400 134L399 133z"/>
<path style="fill:#68a0f3; stroke:none;" d="M422 133L423 134L422 133z"/>
<path style="fill:#2d7aed; stroke:none;" d="M396 134L397 135L396 134z"/>
<path style="fill:#68a0f3; stroke:none;" d="M425 134L426 135L425 134M393 135L394 136L393 135M428 135L429 136L428 135M391 136L392 137L391 136z"/>
<path style="fill:#2d7aed; stroke:none;" d="M392 136L393 137L392 136z"/>
<path style="fill:#68a0f3; stroke:none;" d="M390 137L391 138L390 137M431 137L432 138L431 137M434 139L435 140L434 139M435 140L436 141L435 140M436 141L437 142L436 141M437 142L438 143L437 142z"/>
<path style="fill:#2d7aed; stroke:none;" d="M384 143L385 144L384 143M438 144L439 145L438 144M383 145L384 146L383 145z"/>
<path style="fill:#68a0f3; stroke:none;" d="M439 145L440 146L439 145z"/>
<path style="fill:#2d7aed; stroke:none;" d="M382 147L383 148L382 147M440 147L441 148L440 147M441 149L442 150L441 149M381 150L382 151L381 150M442 151L443 152L442 151z"/>
<path style="fill:#68a0f3; stroke:none;" d="M443 153L444 154L443 153M380.333 154.667L380.667 155.333L380.333 154.667z"/>
<path style="fill:#2d7aed; stroke:none;" d="M380.333 156.667L380.667 157.333L380.333 156.667z"/>
<path style="fill:#68a0f3; stroke:none;" d="M444 156L445 157L444 156z"/>
<path style="fill:#f17a6d; stroke:none;" d="M388 158L388 165L394 167L388 168L389 174C393.318 173.777 395.15 174.409 395 179L393 179L391 175L390 175L392 192L394 192L393 194L396 195L401 203L412 205L428 203C427.219 198.791 426.15 194.032 428.318 190.043C432.33 182.661 439.285 181.946 437 172L435 173L422 169.076L388 158z"/>
<path style="fill:#68a0f3; stroke:none;" d="M445 159L446 160L445 159z"/>
<path style="fill:#2d7aed; stroke:none;" d="M392 160L393 161L392 160z"/>
<path style="fill:#68a0f3; stroke:none;" d="M446 162L447 163L446 162z"/>
<path style="fill:#2d7aed; stroke:none;" d="M398 163L399 164L398 163M392 164L393 165L392 164M388 165L389 166L388 165M393 165L392 167L394 167L393 165z"/>
<path style="fill:#68a0f3; stroke:none;" d="M447 165L448 166L447 165z"/>
<path style="fill:#2d7aed; stroke:none;" d="M407 166L408 167L407 166M388 167L389 168L388 167M419 168L420 169L419 168z"/>
<path style="fill:#68a0f3; stroke:none;" d="M448 168L449 169L448 168z"/>
<path style="fill:#2d7aed; stroke:none;" d="M388 169L389 170L388 169M423 169L424 170L423 169M430 169L431 170L430 169M410 170L411 171L410 170z"/>
<path style="fill:#0d1014; stroke:none;" d="M410 171L415 178L416 174L413 175L415 171L410 171z"/>
<path style="fill:#f4f0ef; stroke:none;" d="M413 173L413 174L418 171L413 173z"/>
<path style="fill:#2d7aed; stroke:none;" d="M436 171L437 172L436 171M449 171L450 172L449 171z"/>
<path style="fill:#68a0f3; stroke:none;" d="M414 172L415 173L414 172z"/>
<path style="fill:#2d7aed; stroke:none;" d="M435 172L436 173L435 172z"/>
<path style="fill:#0d1014; stroke:none;" d="M392 173L394 175L394 176L392 178L393 179L395 179L395 173L392 173z"/>
<path style="fill:#2d7aed; stroke:none;" d="M437 173L438 174L437 173z"/>
<path style="fill:#68a0f3; stroke:none;" d="M450 173L451 174L450 173M379 174L379 178L380 178L379 174z"/>
<path style="fill:#2d7aed; stroke:none;" d="M389 174L390 175L389 174z"/>
<path style="fill:#f4f0ef; stroke:none;" d="M390 174L393 176L390 174z"/>
<path style="fill:#2d7aed; stroke:none;" d="M395 174L396 175L395 174z"/>
<path style="fill:#68a0f3; stroke:none;" d="M413 174L414 175L413 174z"/>
<path style="fill:#2d7aed; stroke:none;" d="M414 174L415 175L414 174z"/>
<path style="fill:#68a0f3; stroke:none;" d="M393 175L394 176L393 175M451 175L452 176L451 175z"/>
<path style="fill:#2d7aed; stroke:none;" d="M415 176L416 177L415 176M452 177L453 178L452 177M379 178L380 179L379 178M413 178L414 179L413 178z"/>
<path style="fill:#68a0f3; stroke:none;" d="M453 178L454 179L453 178z"/>
<path style="fill:#2d7aed; stroke:none;" d="M437 179L438 180L437 179z"/>
<path style="fill:#68a0f3; stroke:none;" d="M378 181L379 182L378 181z"/>
<path style="fill:#2d7aed; stroke:none;" d="M378 182L379 183L378 182z"/>
<path style="fill:#f4f0ef; stroke:none;" d="M391 182L391 186L392 186L391 182z"/>
<path style="fill:#2d7aed; stroke:none;" d="M456 182L457 183L456 182z"/>
<path style="fill:#68a0f3; stroke:none;" d="M377 184L378 185L377 184M460 185L461 186L460 185M376 186L377 187L376 186M462 186L463 187L462 186z"/>
<path style="fill:#2d7aed; stroke:none;" d="M463 187L464 188L463 187z"/>
<path style="fill:#68a0f3; stroke:none;" d="M375 188L376 189L375 188z"/>
<path style="fill:#f4f0ef; stroke:none;" d="M400 192C405.006 198.31 412.322 197.226 414 189L400 192z"/>
<path style="fill:#2d7aed; stroke:none;" d="M461 189L462 190L461 189z"/>
<path style="fill:#f4f0ef; stroke:none;" d="M392 190L393 191L392 190z"/>
<path style="fill:#68a0f3; stroke:none;" d="M460 190L461 191L460 190M371 192L372 193L371 192z"/>
<path style="fill:#f4f0ef; stroke:none;" d="M393 192L394 193L393 192z"/>
<path style="fill:#68a0f3; stroke:none;" d="M457 192L458 193L457 192z"/>
<path style="fill:#2d7aed; stroke:none;" d="M455 193L456 194L455 193M372 194L373 195L372 194z"/>
<path style="fill:#68a0f3; stroke:none;" d="M454 194L455 195L454 194M373 195L374 196L373 195z"/>
<path style="fill:#f4f0ef; stroke:none;" d="M395 195L396 196L395 195z"/>
<path style="fill:#68a0f3; stroke:none;" d="M452 195L453 196L452 195M375 196L376 197L375 196z"/>
<path style="fill:#2d7aed; stroke:none;" d="M450 196L451 197L450 196z"/>
<path style="fill:#68a0f3; stroke:none;" d="M377 197L378 198L377 197z"/>
<path style="fill:#2d7aed; stroke:none;" d="M448 197L449 198L448 197z"/>
<path style="fill:#68a0f3; stroke:none;" d="M379 198L380 199L379 198M446 198L447 199L446 198M381 199L382 200L381 199z"/>
<path style="fill:#2d7aed; stroke:none;" d="M382 199L383 200L382 199z"/>
<path style="fill:#f4f0ef; stroke:none;" d="M398 199L400 201L398 199z"/>
<path style="fill:#68a0f3; stroke:none;" d="M444 199L445 200L444 199M384 200L385 201L384 200z"/>
<path style="fill:#2d7aed; stroke:none;" d="M398 200L399 201L398 200M427 200L428 201L427 200M441 200L442 201L441 200M387 201L388 202L387 201z"/>
<path style="fill:#68a0f3; stroke:none;" d="M438 201L439 202L438 201M390 202L391 203L390 202z"/>
<path style="fill:#2d7aed; stroke:none;" d="M391 202L392 203L391 202z"/>
<path style="fill:#f4f0ef; stroke:none;" d="M402 202L403 203L402 202z"/>
<path style="fill:#2d7aed; stroke:none;" d="M434 202L435 203L434 202z"/>
<path style="fill:#68a0f3; stroke:none;" d="M435 202L436 203L435 202M394 203L395 204L394 203z"/>
<path style="fill:#2d7aed; stroke:none;" d="M395 203L396 204L395 203M403 203L404 204L403 203z"/>
<path style="fill:#68a0f3; stroke:none;" d="M428.667 203.333L429.333 203.667L428.667 203.333z"/>
<path style="fill:#2d7aed; stroke:none;" d="M430 203L431 204L430 203z"/>
<path style="fill:#68a0f3; stroke:none;" d="M431.667 203.333L432.333 203.667L431.667 203.333M398.667 204.333L399.333 204.667L398.667 204.333z"/>
<path style="fill:#2d7aed; stroke:none;" d="M400 204L401 205L400 204z"/>
<path style="fill:#68a0f3; stroke:none;" d="M480 204L480 205L507 205L480 204M405 205L405 206L409 206L405 205z"/>
<path style="fill:#2d7aed; stroke:none;" d="M409 205L410 206L409 205z"/>
<path style="fill:#68a0f3; stroke:none;" d="M410 205L411 206L410 205M472.667 205.333L473.333 205.667L472.667 205.333z"/>
<path style="fill:#2d7aed; stroke:none;" d="M474.667 205.333L475.333 205.667L474.667 205.333z"/>
<path style="fill:#68a0f3; stroke:none;" d="M512 205L513 206L512 205M468 206L469 207L468 206z"/>
<path style="fill:#2d7aed; stroke:none;" d="M469 206L470 207L469 206z"/>
<path style="fill:#68a0f3; stroke:none;" d="M514 206L515 207L514 206M465 207L466 208L465 207z"/>
<path style="fill:#2d7aed; stroke:none;" d="M466 207L467 208L466 207z"/>
<path style="fill:#68a0f3; stroke:none;" d="M515 207L516 208L515 207M463 208L464 209L463 208M516 208L517 209L516 208M461 209L462 210L461 209M517 209L518 210L517 209z"/>
<path style="fill:#2d7aed; stroke:none;" d="M460 210L461 211L460 210z"/>
<path style="fill:#68a0f3; stroke:none;" d="M439 211L440 212L439 211z"/>
<path style="fill:#2d7aed; stroke:none;" d="M402 215C382.326 222.633 375.625 248.102 374 268C385.778 271.361 397.369 275.197 398 289C412.796 286.131 424.224 286.32 428 270C432.764 271.102 437.363 272.789 442 274.333C445.033 275.343 451.235 276.125 452.788 279.303C455.317 284.482 447.404 301.287 442.815 303.976C435.396 308.322 422.324 306.378 414 307.17C408.737 307.671 402.036 306.792 401 313L430 313L430 325L391 326C399.9 367.477 412.065 408.767 422.373 450C426.17 465.188 435.732 485.517 435 501L444 502L426.6 417L409 334L440 339C443.545 323.684 450.83 317.131 466 314C464.372 301.922 458.534 290.501 459.104 278C459.835 261.963 473.861 233.808 461.786 220.019C459.851 217.808 457.601 216.04 455 214.684C435.099 204.313 432.876 228.634 423.39 240.985C412.816 254.753 406.243 237.542 404.211 228C403.294 223.696 402.349 219.388 402 215z"/>
<path style="fill:#68a0f3; stroke:none;" d="M443 211L443 212L447 212L443 211z"/>
<path style="fill:#2d7aed; stroke:none;" d="M459 211L460 212L459 211z"/>
<path style="fill:#68a0f3; stroke:none;" d="M450 212L451 213L450 212z"/>
<path style="fill:#2d7aed; stroke:none;" d="M458 212L459 213L458 212z"/>
<path style="fill:#68a0f3; stroke:none;" d="M519 212L520 213L519 212M438 213L439 214L438 213M452 213L453 214L452 213M457 213L458 214L457 213M454 214L455 215L454 214M456 214L457 215L456 214z"/>
<path style="fill:#2d7aed; stroke:none;" d="M520 214L521 215L520 214z"/>
<path style="fill:#68a0f3; stroke:none;" d="M400 215L401 216L400 215M437 215L438 216L437 215M397.667 216.333L398.333 216.667L397.667 216.333M521 216L522 217L521 216M395 217L396 218L395 217M402 217L402 220L403 220L402 217M436 217L437 218L436 217z"/>
<path style="fill:#2d7aed; stroke:none;" d="M521 217L522 218L521 217z"/>
<path style="fill:#68a0f3; stroke:none;" d="M393 218L394 219L393 218M391 219L392 220L391 219M435 219L436 220L435 219M522.333 219.667L522.667 220.333L522.333 219.667M390 220L391 221L390 220M389 221L390 222L389 221M434 221L435 222L434 221z"/>
<path style="fill:#2d7aed; stroke:none;" d="M522 221L523 222L522 221z"/>
<path style="fill:#68a0f3; stroke:none;" d="M388 222L389 223L388 222M387 223L388 224L387 223M403.333 223.667L403.667 224.333L403.333 223.667M433 223L434 224L433 223M386 224L387 225L386 224M523 224L524 225L523 224M432 225L433 226L432 225z"/>
<path style="fill:#2d7aed; stroke:none;" d="M523 225L524 226L523 225z"/>
<path style="fill:#68a0f3; stroke:none;" d="M385 226L386 227L385 226M431 227L432 228L431 227M404.333 228.667L404.667 229.333L404.333 228.667M524.333 228.667L524.667 229.333L524.333 228.667M384 229L385 230L384 229z"/>
<path style="fill:#2d7aed; stroke:none;" d="M524 230L525 231L524 230z"/>
<path style="fill:#68a0f3; stroke:none;" d="M383.333 232.667L383.667 233.333L383.333 232.667M405.333 232.667L405.667 233.333L405.333 232.667M428 232L429 233L428 232M525 233L526 234L525 233M427 234L428 235L427 234z"/>
<path style="fill:#2d7aed; stroke:none;" d="M525 234L526 235L525 234z"/>
<path style="fill:#68a0f3; stroke:none;" d="M406.333 236.667L406.667 237.333L406.333 236.667M426 236L427 237L426 236M407.333 239.667L407.667 240.333L407.333 239.667M424 239L425 240L424 239M423 241L424 242L423 241M408 242L409 243L408 242M422 242L423 243L422 242M411 245L412 246L411 245M419 245L420 246L419 245M413 246L414 247L413 246M417 246L418 247L417 246M57 422C64.8526 427.812 60.8203 436.511 60 445L63 444L65 424C84.6274 423.593 109.319 409.671 104.482 387C102.526 377.831 92.2727 369.255 92.4375 360C92.6675 347.087 109.841 340.495 105.362 325C103.489 318.52 97.5172 315.613 94.4174 309.996C87.9356 298.251 92.6638 254.604 67 265.009C53.392 270.527 54.09 289.306 50.2508 301C48.8764 305.186 45.2376 309.479 45.4614 314C46.1122 327.143 62.0615 329.757 63.7832 342C65.1657 351.831 54.1915 359.906 56.6644 369C60.5832 383.411 80.0605 390.456 71.1651 408C69.9017 410.492 68.2444 412.817 66.3812 414.896C63.7124 417.874 60.2992 419.813 57 422M187 284C195.845 281.101 203.752 281 213 281C216.654 281 221.095 282.221 222 278C214.416 279.806 197.743 275.423 193 282C187.868 280.4 174.695 280.354 171.851 275.772C168.435 270.267 176.141 268.077 180 268.005C193.299 267.755 209.042 265.915 222 269L222 265C198.667 265 175.333 264.952 152 265C145.205 265.014 134.481 270.488 141.707 278.566C147.057 284.548 167.468 281 175 281C179.394 281 184.383 279.963 187 284z"/>
<path style="fill:#f4f0ef; stroke:none;" d="M193 282C199.121 276.221 212.98 279 221 279L221 268L189 268C184.57 268 178.265 266.875 174.109 268.603C170.111 270.266 169.447 275.494 173.229 277.821C177.342 280.352 188.037 281.383 193 282z"/>
<path style="fill:#2d7aed; stroke:none;" d="M265.667 268.333L266.333 268.667L265.667 268.333M263 269L260 273L263 269z"/>
<path style="fill:#68a0f3; stroke:none;" d="M275 277L267 277L267 269C251.294 273.461 268.506 295.415 275 277z"/>
<path style="fill:#f17a6d; stroke:none;" d="M428 270C424.331 285.861 412.84 287.002 398 289C397.516 277.891 391.824 272.923 381 271C376.639 292.13 360.087 288.159 344 294.193C339.032 296.056 326.238 299.095 328.121 306.852C329.037 310.623 334.081 309.994 337 310L366 310C384.903 309.993 404.262 308.496 423 306.285C429.151 305.56 438.524 307.114 443.786 303.258C450.129 298.61 452.493 285.28 454 278L428 270z"/>
<path style="fill:#68a0f3; stroke:none;" d="M430 270L431 271L430 270M384 271L385 272L384 271M433 271L434 272L433 271M386 272L387 273L386 272M427 272L428 273L427 272M436 272L437 273L436 272M388 273L389 274L388 273M439 273L440 274L439 273M442 274L443 275L442 274z"/>
<path style="fill:#2d7aed; stroke:none;" d="M267 275L275 277L275 276L267 275z"/>
<path style="fill:#68a0f3; stroke:none;" d="M426 275L427 276L426 275z"/>
<path style="fill:#2d7aed; stroke:none;" d="M259.333 276.667L259.667 277.333L259.333 276.667z"/>
<path style="fill:#68a0f3; stroke:none;" d="M452 277L453 278L452 277z"/>
<path style="fill:#2d7aed; stroke:none;" d="M274.333 278.667L274.667 279.333L274.333 278.667z"/>
<path style="fill:#68a0f3; stroke:none;" d="M425 278L426 279L425 278z"/>
<path style="fill:#2d7aed; stroke:none;" d="M216 297L216 293L189 294L180 296C176.365 295.44 156.625 291.565 167.229 285.028C171.925 282.133 181.623 284 187 284L187 281C172.392 281 155.32 278.422 141 280.573C134.515 281.547 130.067 289.431 135.318 294.682C139.81 299.175 151.151 297 157 297L216 297M260 280L261 281L260 280z"/>
<path style="fill:#68a0f3; stroke:none;" d="M453.333 280.667L453.667 281.333L453.333 280.667z"/>
<path style="fill:#2d7aed; stroke:none;" d="M194 283L188 283L188 284L216 284L216 281C210.439 281 197.804 278.646 194 283M273 281L274 282L273 281z"/>
<path style="fill:#68a0f3; stroke:none;" d="M424 281L425 282L424 281z"/>
<path style="fill:#f4f0ef; stroke:none;" d="M193 282L194 283L193 282z"/>
<path style="fill:#2d7aed; stroke:none;" d="M261 282L262 283L261 282M262 283L263 284L262 283z"/>
<path style="fill:#68a0f3; stroke:none;" d="M397 283L398 284L397 283M423 283L424 284L423 283M166 284L165 286L166 284z"/>
<path style="fill:#f4f0ef; stroke:none;" d="M173 296L174 296C185.337 291.127 201.836 294 214 294L214 284L176 284C172.291 284.002 164.636 283.374 164.636 289C164.636 293.302 170.34 293.94 173 296z"/>
<path style="fill:#2d7aed; stroke:none;" d="M263 284L264 285L263 284M270 284L271 285L270 284z"/>
<path style="fill:#68a0f3; stroke:none;" d="M418.667 284.333L419.333 284.667L418.667 284.333M452 284L453 285L452 284z"/>
<path style="fill:#2d7aed; stroke:none;" d="M266 285L266 286L269 286L266 285z"/>
<path style="fill:#68a0f3; stroke:none;" d="M414 285L415 286L414 285z"/>
<path style="fill:#2d7aed; stroke:none;" d="M43 446C46.8144 440.965 42.0599 433.05 45.6929 428.699C47.9943 425.943 52.9636 425.192 56 423.394C65.2884 417.894 75.176 408.973 73.5455 397C71.8913 384.853 57.4141 378.204 56.6065 367C55.8945 357.123 66.6148 350.239 63.3619 339C61.1064 331.207 53.3359 329.333 49.3526 322.96C42.5058 312.005 43.6303 286.891 26 286.148C5.59753 285.289 14.0007 315.911 9.29707 327C5.44847 336.073 -2.04606 339.796 0.390432 351C2.23165 359.467 13.1183 364.839 13.5864 373C14.2317 384.251 3.13439 392.504 5.3287 405C7.33929 416.45 17.8063 422.459 28 425.653C31.5574 426.767 37.5967 426.765 40.2577 429.589C43.7339 433.278 41.6159 441.317 43 446z"/>
<path style="fill:#68a0f3; stroke:none;" d="M409.667 286.333L410.333 286.667L409.667 286.333M405 287L406 288L405 287M451 287L452 288L451 287M400.667 288.333L401.333 288.667L400.667 288.333M450 290L451 291L450 290M164 291L165 292L164 291M165 292L166 293L165 292M166 293L167 294L166 293M449 293L450 294L449 293M172.333 294.667L172.667 295.333L172.333 294.667M176 294L177 295L176 294M174 295L175 296L174 295M177 295L177 296L180 296L177 295M448 295L449 296L448 295M447 298L448 299L447 298z"/>
<path style="fill:#2d7aed; stroke:none;" d="M177 299L177 300L222 300C210.299 295.09 189.742 299 177 299z"/>
<path style="fill:#68a0f3; stroke:none;" d="M174 300L173 302L174 300z"/>
<path style="fill:#f4f0ef; stroke:none;" d="M189 314L195 314L194 309L222 309L222 300L183 300C179.383 300.007 171.605 300.03 172.971 305.892C174.563 312.726 186.08 306.059 189 314z"/>
<path style="fill:#68a0f3; stroke:none;" d="M446 300L447 301L446 300z"/>
<path style="fill:#2d7aed; stroke:none;" d="M172 302L173 303L172 302z"/>
<path style="fill:#68a0f3; stroke:none;" d="M172 303L173 304L172 303M444 303L445 304L444 303z"/>
<path style="fill:#2d7aed; stroke:none;" d="M327 304L328 305L327 304z"/>
<path style="fill:#68a0f3; stroke:none;" d="M442.667 304.333L443.333 304.667L442.667 304.333M434 305L434 306L437 306L434 305M172 306L173 307L172 306M421 306L421 307L426 307L421 306M406 307L406 308L412 308L406 307z"/>
<path style="fill:#2d7aed; stroke:none;" d="M173 308L174 309L173 308M174 309L175 310L174 309z"/>
<path style="fill:#68a0f3; stroke:none;" d="M175 309L176 310L175 309M177 309L177 310L188 310L177 309M194 312L195 312C201.065 307.405 214.55 310 222 310C217.783 307.57 195.071 307.004 194 312z"/>
<path style="fill:#2d7aed; stroke:none;" d="M375.667 309.333L376.333 309.667L375.667 309.333M187 310L188 311L187 310z"/>
<path style="fill:#68a0f3; stroke:none;" d="M188 311L190 315L188 311z"/>
<path style="fill:#2d7aed; stroke:none;" d="M135 312L135 326L295 326L295 313L231 312.001L195 312L196 315L188 315L174 313L135 312z"/>
<path style="fill:#68a0f3; stroke:none;" d="M191 313L192 314L191 313M193 313L194 314L193 313M194.667 314.333L195.333 314.667L194.667 314.333z"/>
<path style="fill:#2d7aed; stroke:none;" d="M250 502C264.02 501.95 268.733 473.776 272.28 462C281.606 431.041 293.937 400.42 305.053 370C310.175 355.983 318.698 339.907 320 325L304.702 326.028L300.28 337L291.344 366L270.961 435L250 502z"/>
<path style="fill:#f4f0ef; stroke:none;" d="M323 436L349 445L351 440L352 440C355.058 452.569 371.746 441.423 381 441C377.906 426.002 362.652 392.448 382.105 382.434C388.527 379.127 397.998 380 405 380L393 332C376.91 333.28 359.092 337.747 344 343.425C338.728 345.408 330.853 347.717 328.028 353.043C321.782 364.818 333.989 382.078 334.491 394C335.067 407.672 324.84 422.344 323 436z"/>
<path style="fill:#68a0f3; stroke:none;" d="M393 333L393 336L394 336L393 333M409 334L409 338L410 338L410 335L414 335L409 334z"/>
<path style="fill:#f4f0ef; stroke:none;" d="M410 335L415.804 367L419.589 377.972L429 379L439 339L410 335z"/>
<path style="fill:#68a0f3; stroke:none;" d="M415 335L415 336L419 336L415 335M421 336L421 337L426 337L421 336M394 337L394 340L395 340L394 337M429 337L429 338L433 338L429 337M436 338L436 339L439 339L436 338M410 339L410 342L411 342L410 339M438.333 340.667L438.667 341.333L438.333 340.667M395.333 341.667L395.667 342.333L395.333 341.667M437 344L438 345L437 344M396.333 345.667L396.667 346.333L396.333 345.667M411 345L411 348L412 348L411 345z"/>
<path style="fill:#2d7aed; stroke:none;" d="M437 345L438 346L437 345z"/>
<path style="fill:#68a0f3; stroke:none;" d="M436.333 347.667L436.667 348.333L436.333 347.667M397 349L398 350L397 349z"/>
<path style="fill:#2d7aed; stroke:none;" d="M436 349L437 350L436 349z"/>
<path style="fill:#68a0f3; stroke:none;" d="M412.333 350.667L412.667 351.333L412.333 350.667M435.333 351.667L435.667 352.333L435.333 351.667M398.333 352.667L398.667 353.333L398.333 352.667M413.333 355.667L413.667 356.333L413.333 355.667M434.333 355.667L434.667 356.333L434.333 355.667M399.333 356.667L399.667 357.333L399.333 356.667M433.333 359.667L433.667 360.333L433.333 359.667M400.333 360.667L400.667 361.333L400.333 360.667M414.333 360.667L414.667 361.333L414.333 360.667z"/>
<path style="fill:#2d7aed; stroke:none;" d="M433 361L434 362L433 361z"/>
<path style="fill:#68a0f3; stroke:none;" d="M432.333 363.667L432.667 364.333L432.333 363.667M401.333 364.667L401.667 365.333L401.333 364.667M415.333 365.667L415.667 366.333L415.333 365.667z"/>
<path style="fill:#2d7aed; stroke:none;" d="M432 365L433 366L432 365z"/>
<path style="fill:#68a0f3; stroke:none;" d="M402.333 368.667L402.667 369.333L402.333 368.667M431 368L432 369L431 368z"/>
<path style="fill:#2d7aed; stroke:none;" d="M431 369L432 370L431 369z"/>
<path style="fill:#68a0f3; stroke:none;" d="M416.333 370.667L416.667 371.333L416.333 370.667M430.333 371.667L430.667 372.333L430.333 371.667M403 372L403 375L404 375L403 372M417 373L417 377L418 377L417 373z"/>
<path style="fill:#2d7aed; stroke:none;" d="M430.333 373.667L430.667 374.333L430.333 373.667z"/>
<path style="fill:#68a0f3; stroke:none;" d="M404 376L404 379L405 379L404 376M429.333 376.667L429.667 377.333L429.333 376.667M418 378L427 380L427 379L418 378z"/>
<path style="fill:#2d7aed; stroke:none;" d="M429 378L430 379L429 378M427.667 379.333L428.333 379.667L427.667 379.333z"/>
<path style="fill:#68a0f3; stroke:none;" d="M391 380L391 381L405 381L391 380z"/>
<path style="fill:#2d7aed; stroke:none;" d="M460 474L474 470L471 396C461.836 398.754 463.013 407.936 463 416C462.969 435.327 460.013 454.669 460 474M65.3333 424.667L65.6667 425.333L65.3333 424.667M64 430L64 433L65 433L64 430M61 433L62 434L61 433M61.3333 435.667L61.6667 436.333L61.3333 435.667M63 436L64 437L63 436z"/>
<path style="fill:#f17a6d; stroke:none;" d="M338 472L348 444C342.888 442.633 332.304 436.342 327.314 437.813C323.426 438.96 318.847 461.018 321.067 464.301C323.65 468.12 333.694 470.76 338 472z"/>
<path style="fill:#2d7aed; stroke:none;" d="M63 438L64 439L63 438z"/>
<path style="fill:#f17a6d; stroke:none;" d="M358 446L364 463L383 458L378.436 442.068L358 446z"/>
<path style="fill:#2d7aed; stroke:none;" d="M62 442L63 443L62 442M60 443L61 444L60 443M62 444L63 445L62 444M60.6667 445.333L61.3333 445.667L60.6667 445.333M20 452L20 453L81 453L61 452L20 452z"/>
<path style="fill:#f4f0ef; stroke:none;" d="M20 453L21 460L66 460C73.0383 460 80.7056 461.967 81 453L20 453z"/>
<path style="fill:#2d7aed; stroke:none;" d="M361 470L368 475L360 474L360 475L365 479L357 478L357 479L361 481L361 482C351.857 484.108 345.473 485.409 341 495L398 480C396.989 474.128 392.751 460.318 387.363 457.082C384.642 455.448 380.615 458.097 378 458.961C370.832 461.329 361.503 460.918 361 470z"/>
<path style="fill:#68a0f3; stroke:none;" d="M376 459L377 460L376 459z"/>
<path style="fill:#2d7aed; stroke:none;" d="M310 466L310 467L313 475L307 470L309 476L302 472L303 476C293.566 471.712 289.422 471.036 279 473L279 474C296.481 481.172 315.392 493.693 334 497L340 472C330.252 470.322 318.7 458.829 310 466z"/>
<path style="fill:#f4f0ef; stroke:none;" d="M307 465L306 466L314 474C312.852 469.606 311.132 466.986 307 465z"/>
<path style="fill:#68a0f3; stroke:none;" d="M23 466L23 467L79 467L61 466L23 466M324 466L325 467L324 466z"/>
<path style="fill:#f4f0ef; stroke:none;" d="M23 467C23.5571 474.15 29.1567 473 35 473L67 473C72.902 473 78.1854 474.077 79 467L23 467M295 467L302 476L301 470L308 476C307.509 471.245 305.383 465.417 300 469L295 467z"/>
<path style="fill:#68a0f3; stroke:none;" d="M329 468L330 469L329 468M306.667 469.333L307.333 469.667L306.667 469.333M331 469L332 470L331 469z"/>
<path style="fill:#f4f0ef; stroke:none;" d="M358 470L359 474L355 474L355 478L350 479L350 481L360 483L356 479L356 478L365 479L359 474L368 474C365.106 470.689 362.382 469.616 358 470z"/>
<path style="fill:#68a0f3; stroke:none;" d="M301 470L301 472L303 472L301 470M308 470L309 471L308 470M313.333 470.667L313.667 471.333L313.333 470.667M364 470L365 471L364 470M296 471L297 472L296 471M307 471L308 472L307 471M366 471L367 472L366 471M297 472L298 473L297 472M303 472L304 473L303 472M367 472L368 473L367 472M24 473L24 474L78 474L60 473L24 473M298 473L299 474L298 473M302 473L302 476L303 476L302 473M304 473L305 474L304 473M308 473L308 476L309 476L308 473M360 473L361 474L360 473M299 474L300 475L299 474M305 474L306 475L305 474M312 474L313 475L312 474M359 474L360 475L359 474M363 474L363 475L368 475L363 474M300 475L301 476L300 475M306 475L307 476L306 475M361 475L362 476L361 475M363 476L364 477L363 476M364 477L365 478L364 477M356 478L357 479L356 478M358 478L359 479L358 478M357 479L358 480L357 479M359 480L360 481L359 480M360 481L361 482L360 481M353.667 482.333L354.333 482.667L353.667 482.333z"/>
<path style="fill:#2d7aed; stroke:none;" d="M399.333 483.667L399.667 484.333L399.333 483.667M396 485L397 486L396 485M385 486L386 487L385 486M393 486L394 487L393 486M295 488L296 489L295 488z"/>
<path style="fill:#f4f0ef; stroke:none;" d="M16 495L16 497L28 499L27 493L16 495z"/>
<path style="fill:#2d7aed; stroke:none;" d="M27 493L28 494L27 493z"/>
<path style="fill:#68a0f3; stroke:none;" d="M74.3333 493.667L74.6667 494.333L74.3333 493.667z"/>
<path style="fill:#f4f0ef; stroke:none;" d="M75 493L74 499L88 497L88 495L75 493z"/>
<path style="fill:#68a0f3; stroke:none;" d="M27.3333 494.667L27.6667 495.333L27.3333 494.667z"/>
<path style="fill:#2d7aed; stroke:none;" d="M313 495L314 496L313 495M73.3333 497.667L73.6667 498.333L73.3333 497.667M356 498L357 499L356 498M353 499L354 500L353 499M326 500L327 501L326 500z"/>
</svg>
